<?xml version="1.0" encoding="utf-8"?>
<!-- Generator: Adobe Illustrator 19.2.1, SVG Export Plug-In . SVG Version: 6.00 Build 0)  -->
<svg version="1.1" id="图层_2" xmlns="http://www.w3.org/2000/svg" xmlns:xlink="http://www.w3.org/1999/xlink" x="0px" y="0px"
	 viewBox="0 0 2048 1536" style="enable-background:new 0 0 2048 1536;" xml:space="preserve">
<style type="text/css">
	.st0{fill:#FF9D00;}
</style>
<path class="st0" d="M1073,735.4c0.2-11.3,1.7-20.3,2.8-24.4c1.2-4.5,7.3-18.1,4.1-24.1c-2.9-5.4-9.9-5.8-9.9-5.8l-59.3,0.3
	l16.7-18.5c0,0,1.4-1.4-2.2-5.2c-9.3-10-35.4-21.5-57.2,0c-28,27.6-4.9,65,1.5,66c1.4,0.2,3.3-1.8,3.3-1.8l17-18
	c0,0,4.6,16,4.9,30.4c0.3,14.3-3.7,34.4-3.8,39.8c-0.2,9,0,21.9,9.1,35.3c5.4,8.1,21.3,12.5,21.3,12.5l1.1,5.9c0,0-1.4,8.9-4.4,11.9
	c-3,2.9-4.7,2.5-11.5,4.8c-6.8,2.3-9.2,7.9-9.2,7.9s-0.8,3.3,5.4,6.4c6.9,3.3,12.1,5.6,30.7,5.6c22.6,0,30-4.4,33.5-6.6
	c3.3-2.1,3-5.2,3-5.2s-0.3-3.5-4.6-6s-8.6-2.4-14.3-5.7c-5.4-3.2-5.6-13-5.6-13l0.8-6.5c0,0,17.6-1.6,24.8-17.9
	c7.2-16.4,5.6-24.7,5.2-32.5C1075.8,763.1,1072.8,746.8,1073,735.4z M967.8,677.5c1.9-4.9,4.2-7.5,4.2-7.5l13.7,15.5h-19.3
	C966.4,685.6,965.9,682.4,967.8,677.5z M972.5,709.9c0,0-2.8-3.3-4.5-7.3s-2-7.7-2-7.7h20L972.5,709.9z M992.1,679.1l-14-15.1
	c0,0,1.6-2.3,6.3-4.4c4.8-2.2,7.6-1.9,7.6-1.9L992.1,679.1L992.1,679.1z M1000.7,657.7c0,0,2.4-0.1,7.5,1.9c5,2,7.5,4.2,7.5,4.2
	l-14.9,15.4L1000.7,657.7L1000.7,657.7z M1061.5,719l-55.4,0.2l-5.5-23.4l65.1-0.2L1061.5,719z"/>
<path class="st0" d="M962.6,735c0.6-1.6,2.4-4.8,3.6-4.8c1.3,0,2.9,2.6,3.9,5c1,2.4,2,7.1,2,9.2c0,2.1-2.4,6.3-5.3,6.3
	s-6.2-3.7-6.2-6C960.5,742.4,962,736.6,962.6,735z"/>
</svg>
