<?xml version="1.0" encoding="utf-8"?>
<!-- Generator: Adobe Illustrator 19.2.1, SVG Export Plug-In . SVG Version: 6.00 Build 0)  -->
<svg version="1.1" id="图层_2" xmlns="http://www.w3.org/2000/svg" xmlns:xlink="http://www.w3.org/1999/xlink" x="0px" y="0px"
	 viewBox="0 0 2048 1536" style="enable-background:new 0 0 2048 1536;" xml:space="preserve">
<style type="text/css">
	.st0{fill:#FF9D00;}
</style>
<path d="M199.3,799.4c0,0-46-22.5-83-7.1c-53.5,22.2-46.2,65.3-42,80.7c7.5,27.4,46.7,42.3,59.3,47.5c23.8,9.8,43.5,24.4,44.3,44.6
	c1,25.1-13.9,40.3-51,42.6c-19.4,1.2-52.8-14.7-52.8-14.7l-8.1,25.5c0,0,31.7,15.2,60.9,14.6c52.2-1,81.9-28.6,81.9-69.1
	c0-22.8-11.5-52.8-53.1-66.5c-35.5-11.7-52.5-24.4-54-46.1c-1.5-21.7,18.8-32,28.1-35.6c24.6-9.8,61.1,9.4,61.1,9.4L199.3,799.4z"/>
<path d="M244.9,1029.6l16.5-237.1h40l33.9,98.7c0,0-3.8-10.6,3.9,11c6.7,19,26,85,26,85l18.4-59.7l8.9-24.6l40.9-111.5h38.7
	l14.9,238.1h-30.8l-9.8-207c1.1-0.2-25.1,78.9-34.1,103c-8.6,23.1-37.7,103.9-37.7,103.9l-22.9-0.4c0,0-40.3-116.7-45.4-132.8
	c-3.2-10-21-73.5-21-73.5l-9.7,206.7H244.9z"/>
<path d="M703.9,819.2c20.2,21,31.9,53,31.9,91.4c0,38.3-15.8,75.1-31.9,90.9s-38.7,32.1-76.1,32.1c-37.3,0-63.9-17.2-81.1-37.3
	c-17.5-22.9-26.6-51.7-26.6-83.2c0-31.4,8.7-61.9,27.6-86.9s53.2-37.8,80.1-37.8C654.7,788.4,683.8,798.4,703.9,819.2z M551.1,908.6
	c0.2,18.4,3.8,46.8,16.8,65.7c7.7,11.1,25.3,34.3,60.5,34.3s54.6-24.3,62.1-37.8s13.5-35.4,13.5-61.2c0-28.3-7.3-54.1-19.8-69.2
	c-11.8-14.3-28.9-26.9-56.3-26.9c-28.3,0-43.7,13-55.3,26.7C561.7,854.3,550.8,883.3,551.1,908.6z"/>
<path d="M947,819.2c20.2,21,31.9,53,31.9,91.4c0,38.3-15.8,75.1-31.9,90.9s-38.7,32.1-76.1,32.1s-63.9-17.2-81.1-37.3
	c-17.5-22.9-26.6-51.7-26.6-83.2c0-31.4,8.7-61.9,27.6-86.9s53.2-37.8,80.1-37.8S926.9,798.4,947,819.2z M794.2,908.6
	c0.2,18.4,3.8,46.8,16.8,65.7c7.7,11.1,25.3,34.3,60.5,34.3c35.2,0,54.6-24.3,62.1-37.8s13.5-35.4,13.5-61.2
	c0-28.3-7.3-54.1-19.8-69.2c-11.8-14.3-28.9-26.9-56.3-26.9c-28.3,0-43.7,13-55.3,26.7C804.8,854.3,793.9,883.3,794.2,908.6z"/>
<polygon points="983.2,792.9 1157.5,792.9 1157.5,818.3 1085.7,818.3 1085.7,1029.2 1055.4,1029.2 1055.4,818.1 983.2,818.1 "/>
<polygon points="1184.2,792.9 1214.7,792.9 1214.7,891.7 1330.5,891.7 1330.5,792.9 1360.5,792.9 1360.5,1029.2 1330.4,1029.2 
	1330.4,918.5 1214.9,918.5 1214.9,1029.2 1184.2,1029.2 "/>
<polygon points="1413.4,792.9 1443.7,792.9 1443.7,1003.8 1544.6,1003.8 1544.6,1029.2 1413.4,1029.2 "/>
<path class="st0" d="M1579.3,830.1l41.6,81.6l48.6-93.4c0,0-1.2-2.9-10.2-3.5c-9.1-0.7-17.6,2.9-20.8,5.3c-3.2,2.4-7.2,7.3-14.1,7.8
	s-13.9-5.4-17.4-7.7c-3.5-2.3-10.8-4.7-15-4.1c-4.2,0.6-6.4,1.3-9.6,5.2S1579.3,830.1,1579.3,830.1z"/>
<path d="M1528.4,792.9h34.3c0,0,34.1,65.4,38.8,74.6c5.1,9.8,18.9,39.4,18.9,39.4s19.7-40.4,22.1-45.2c2.4-4.8,36.1-68.8,36.1-68.8
	h34.1l-79.1,135.7l0.1,100.5h-30.2l-0.1-100.5L1528.4,792.9z"/>
<path class="st0" d="M1933.9,714.9c0.5-29.8,4.5-53.3,7.4-64.1c3.2-11.9,19.1-47.5,10.8-63.4c-7.5-14.3-25.9-15.3-25.9-15.3
	l-155.8,0.7l43.9-48.6c0,0,3.6-3.7-5.8-13.7c-24.5-26.2-93-56.4-150.3,0c-73.7,72.5-13,170.8,3.9,173.5c3.8,0.6,8.7-4.7,8.7-4.7
	l44.7-47.2c0,0,12.2,42.1,12.9,79.8c0.7,37.7-9.8,90.4-10.1,104.6c-0.5,23.6,0.1,57.6,23.8,92.9c14.3,21.4,55.9,32.8,55.9,32.8
	l2.9,15.6c0,0-3.7,23.5-11.5,31.2s-12.4,6.7-30.2,12.7c-17.8,6.1-24.2,20.9-24.2,20.9s-2.1,8.8,14.3,16.8
	c18.2,8.8,31.9,14.6,80.6,14.6c59.3,0,78.9-11.7,88-17.4c8.7-5.4,7.8-13.6,7.8-13.6s-0.9-9.2-12.2-15.8
	c-11.3-6.6-22.7-6.4-37.6-15.1c-14.2-8.3-14.8-34.3-14.8-34.3l2.2-17.1c0,0,46.2-4.1,65.1-47.1s14.6-65,13.8-85.4
	C1941.2,787.7,1933.3,744.7,1933.9,714.9z M1657.2,562.7c4.9-12.9,11-19.7,11-19.7l35.9,40.8h-50.7
	C1653.5,583.9,1652.3,575.6,1657.2,562.7z M1669.5,647.8c0,0-7.3-8.7-11.8-19.1c-4.5-10.4-5.3-20.2-5.3-20.2h52.6L1669.5,647.8z
	 M1721.2,566.9l-36.7-39.7c0,0,4.2-6.1,16.6-11.7c12.5-5.7,20-4.9,20-4.9V566.9z M1743.8,510.5c0,0,6.4-0.3,19.7,4.9
	c13.2,5.3,19.7,11,19.7,11l-39.3,40.5V510.5z M1903.7,671.8l-145.6,0.4l-14.4-61.6l171.2-0.4L1903.7,671.8z"/>
<path class="st0" d="M1643.5,713.9c1.5-4.1,6.3-12.6,9.5-12.6c3.3,0,7.6,6.9,10.3,13.1c2.7,6.2,5.2,18.6,5.2,24.1
	c0,5.5-6.3,16.6-14,16.6s-16.3-9.8-16.3-15.8S1642,718,1643.5,713.9z"/>
</svg>
